# xmcd
#
# Track frame offsets: 
#        150
#        17890
#        39117
#        60082
#        80447
#        101524
#        122864
#        146754
#        172481
#        198433
#
# Disc length: 2849 seconds
#
# Revision: 0
# Processed by: cddbd v1.5.2PL0 Copyright (c) Steve Scherf et al.
# Submitted via: ExactAudioCopy v0.99pb4
#
DISCID=840b1f0a
DTITLE=บิ๊กวัน  กันทรลักษ์ - อิสานแตกปอก
DYEAR=2008
DGENRE=Country
TTITLE0=เฮาบ่สมกัน
TTITLE1=หุ่นเชิด
TTITLE2=คุถังน้ำตา
TTITLE3=เต้นบ่ได้
TTITLE4=แอ่วแม่ออกคุก
TTITLE5=เซาสาอย่าไห้
TTITLE6=เผิ่นแก่งขวด
TTITLE7=คึดฮอดแม่
TTITLE8=สตริงโตจริง
TTITLE9=คนกระจอก
EXTD=
EXTT0=
EXTT1=
EXTT2=
EXTT3=
EXTT4=
EXTT5=
EXTT6=
EXTT7=
EXTT8=
EXTT9=
PLAYORDER=
